# Blender 4.1.1
# www.blender.org
mtllib master.mtl
o visual_0_wall_28.002_Cube.024
v -9.050000 -5.000000 -0.250000
v -9.050000 -5.000000 0.750000
v -9.050000 4.000000 -0.250000
v -9.050000 4.000000 0.750000
v -8.950000 -5.000000 -0.250000
v -8.950000 -5.000000 0.750000
v -8.950000 4.000000 -0.250000
v -8.950000 4.000000 0.750000
v -9.050000 4.000000 -0.250000
v -9.050000 4.000000 -0.250000
v -9.050000 -5.000000 -0.250000
v -9.050000 -5.000000 -0.250000
v -9.050000 -5.000000 0.750000
v -9.050000 -5.000000 0.750000
v -9.050000 4.000000 0.750000
v -9.050000 4.000000 0.750000
v -8.950000 4.000000 -0.250000
v -8.950000 4.000000 -0.250000
v -8.950000 4.000000 0.750000
v -8.950000 4.000000 0.750000
v -8.950000 -5.000000 -0.250000
v -8.950000 -5.000000 -0.250000
v -8.950000 -5.000000 0.750000
v -8.950000 -5.000000 0.750000
vn -1.0000 -0.0000 -0.0000
vn -0.0000 1.0000 -0.0000
vn 1.0000 -0.0000 -0.0000
vn -0.0000 -1.0000 -0.0000
vn -0.0000 -0.0000 -1.0000
vn -0.0000 -0.0000 1.0000
vt -0.034833 -1.639330
vt 1.034832 -1.639330
vt 1.034832 -0.569665
vt -0.034833 -0.569665
vt 1.034832 0.500000
vt -0.034833 0.500000
vt 1.034832 1.569665
vt -0.034833 1.569665
vt 1.034832 2.639330
vt -0.034833 2.639330
vt -1.104498 0.500000
vt -1.104498 1.569665
vt 2.104498 0.500000
vt 2.104498 1.569665
s 1
usemtl Material.053
f 11/1/1 13/2/1 15/3/1 9/4/1
f 10/4/2 16/3/2 19/5/2 17/6/2
f 18/6/3 20/5/3 23/7/3 21/8/3
f 22/8/4 24/7/4 14/9/4 12/10/4
f 3/11/5 7/6/5 5/8/5 1/12/5
f 8/5/6 4/13/6 2/14/6 6/7/6
